<svg width="51" height="51" fill="none" xmlns="http://www.w3.org/2000/svg"><path fill-rule="evenodd" clip-rule="evenodd" d="M17.834 15h15.331c.461 0 .835.408.835.911v17.178c0 .503-.374.911-.835.911h-15.33c-.462 0-.835-.408-.835-.911V15.911c0-.503.373-.911.834-.911" fill="#FFB3A9"/><path fill-rule="evenodd" clip-rule="evenodd" d="M23.473 37h-7.946a.514.514 0 0 1-.527-.5c0-.276.236-.5.527-.5h7.946c.291 0 .527.224.527.5s-.236.5-.527.5M19.477 40h-3.954a.512.512 0 0 1-.523-.5c0-.276.234-.5.524-.5h3.953c.289 0 .523.224.523.5s-.234.5-.523.5M19.505 13h-4.01a.497.497 0 0 1-.495-.5c0-.277.222-.5.495-.5h4.01c.274 0 .495.223.495.5s-.221.5-.495.5" fill="#3B3B3B"/><path fill-rule="evenodd" clip-rule="evenodd" d="M13 41V9h21.26l.153 3.872c-.006.14.007.53.296.836.143.152.406.334.842.334H39V41H13Zm22-31 3 3h-2.785c-.047 0-.079-.014-.075-.005a.22.22 0 0 1-.024-.098l.003-.029L35 10Zm5 3.545c0-.024-.01-.046-.014-.069v-.188L34.953 8H12v34h27.986V13.613c.003-.023.014-.044.014-.068Z" fill="#3B3B3B"/><path fill-rule="evenodd" clip-rule="evenodd" d="M20 17.069a.07.07 0 0 1 .072-.069h4.305C25.823 17 27 18.122 27 19.5c0 1.379-1.177 2.5-2.623 2.5H20v-4.931Zm7.075 10.297 3.777-3.743a.506.506 0 0 0 .006-.71.49.49 0 0 0-.702-.006l-3.781 3.748-3.329-3.379h1.294c1.984 0 3.598-1.631 3.598-3.638 0-2.006-1.614-3.638-3.598-3.638h-4.276c-.587 0-1.064.483-1.064 1.076v11.532c0 .278.222.502.496.502a.498.498 0 0 0 .496-.502v-5.332h1.674c.015.02.023.044.042.063l3.958 4.019-3.816 3.782a.506.506 0 0 0-.007.71.494.494 0 0 0 .702.006l3.821-3.787 3.705 3.76a.492.492 0 0 0 .701 0 .505.505 0 0 0 .001-.708l-3.698-3.755Z" fill="#3B3B3B"/></svg>