<svg width="51" height="51" fill="none" xmlns="http://www.w3.org/2000/svg"><path fill-rule="evenodd" clip-rule="evenodd" d="M0 51h51V0H0v51Z" fill="#606060" fill-opacity=".01"/><path fill-rule="evenodd" clip-rule="evenodd" d="M25 43c-9.374 0-17-7.626-17-17 0-9.374 7.626-17 17-17 9.374 0 17 7.626 17 17 0 9.374-7.626 17-17 17m18-16.758c0-9.784-7.802-17.77-17.493-18.04V6.017h1.68a.507.507 0 0 0 0-1.017h-4.373a.508.508 0 0 0 0 1.017h1.679v2.185C14.802 8.472 7 16.458 7 26.242c0 7.616 4.729 14.14 11.394 16.788l-.915 2.27a.509.509 0 0 0 .47.7c.2 0 .39-.12.47-.318l.928-2.305a17.866 17.866 0 0 0 11.305 0l.929 2.305a.507.507 0 1 0 .94-.381l-.916-2.271C38.271 40.383 43 33.858 43 26.242" fill="#3B3B3B"/><path fill-rule="evenodd" clip-rule="evenodd" d="M38 26.5C38 33.956 32.18 40 25 40s-13-6.044-13-13.5S17.82 13 25 13s13 6.044 13 13.5" fill="#FFB3A9"/><path fill-rule="evenodd" clip-rule="evenodd" d="M24.526 27h-8.052a.487.487 0 0 1-.474-.5c0-.276.212-.5.474-.5h7.579v-8.5c0-.276.212-.5.473-.5.262 0 .474.224.474.5v9c0 .276-.212.5-.474.5M24.5 13c-.276 0-.5-.23-.5-.514v-1.972c0-.284.224-.514.5-.514s.5.23.5.514v1.972a.507.507 0 0 1-.5.514M24.5 42c-.276 0-.5-.23-.5-.514v-1.972c0-.284.224-.514.5-.514s.5.23.5.514v1.972a.507.507 0 0 1-.5.514M40.486 27h-1.972a.507.507 0 0 1-.514-.5c0-.276.23-.5.514-.5h1.972c.284 0 .514.224.514.5s-.23.5-.514.5M11.486 27H9.514A.507.507 0 0 1 9 26.5c0-.276.23-.5.514-.5h1.972c.284 0 .514.224.514.5s-.23.5-.514.5" fill="#3B3B3B"/></svg>